<svg xmlns="http://www.w3.org/2000/svg" width="100" height="100" fill="none"><rect width="100" height="100" fill="#222" rx="12"/><rect width="100" height="100" fill="url(#a)" rx="12"/><path fill="#3FB950" d="M18 54.7a3 3 0 0 1 4.3 0l17 17c.5.4 1 .4 1.5 0L82.5 30a3 3 0 0 1 4.2 0l2 1.9a3 3 0 0 1 0 4.2L46.2 78.7l-4 4a3 3 0 0 1-4.2 0L16 60.9a3 3 0 0 1 0-4.3l2-1.9Z"/><path fill="url(#b)" d="m89 66.6-5.3 9.6H71l6.3 11-2.7 4.8h-5.5l-9-15.8H53l9.6-9.6H89Zm-76-4.8 1 1.2 6 5.9-3.5 6-5.5-9.4 2-3.7Zm3-5 .1-.2-.1.2Zm11.4-1.1-3-3.1a6 6 0 0 0-8.5 0l-1.8 1.8H4.7L2 49.6l2.7-4.8h18l6.5-11.2H40l-12.6 22ZM62.8 18l6.4-11h5.4l2.7 4.8-9 15.7 4.4 7.9-6.9 6.9L45.8 7 56.5 7l6.2 11.1Z"/><path fill="url(#c)" d="m54.9 91.9-10.7.1-3.1-5.5a6 6 0 0 0 3.2-1.7l4-4 .2-.2L55 92Zm-19.1-7.2L31.7 92h-5.3l-2.8-4.8L29 78l6.9 6.8ZM47 78l-.8.8-4 4-.1.1.1-.1 4-4 .8-.8ZM40.2 72Zm.5-.2Zm.3-4.5-1 .9-11.7-11.7 3.3-6L41 67.3Zm54.3-22.6 2.7 4.7-2.7 4.8H77.5l-6.3 11.2h-7.6l20.8-20.7h11Zm-54.8-22 12.7.1 5.4 9.5H12l5.3-9.5h12.5l-6.2-11L26.2 7h5.5l8.8 15.8Zm44.3 3.4a6 6 0 0 0-2.4.4l1.3-2.4 1.1 2Z"/><defs><linearGradient id="b" x1="76.7" x2="59.1" y1="47.2" y2="17.1" gradientUnits="userSpaceOnUse"><stop offset=".2" stop-color="#7EB1DD"/></linearGradient><linearGradient id="c" x1="63.4" x2="81.3" y1="70.3" y2="40.6" gradientUnits="userSpaceOnUse"><stop offset="1" stop-color="#5277C3"/></linearGradient><radialGradient id="a" cx="0" cy="0" r="1" gradientTransform="matrix(0 50 -50 0 50 50)" gradientUnits="userSpaceOnUse"><stop offset=".5" stop-color="#091A3D"/><stop offset="1" stop-color="#000819"/></radialGradient></defs></svg>